<svg width="55" height="44" viewBox="0 0 55 44" fill="none" xmlns="http://www.w3.org/2000/svg">
<g id="Chat Icon" clip-path="url(#clip0_233_69)">
<path id="Vector" d="M48.7397 10.1016H24.1826C20.7303 10.1016 17.8781 12.6562 17.8781 15.7945C17.8781 15.7945 17.8502 21.1022 17.8781 21.3614C18.2294 24.5277 20.8443 27.1921 24.2547 27.4092C24.4036 27.4186 38.2315 27.4092 38.2315 27.4092C42.4143 27.4092 45.8178 23.993 45.8178 19.7945V15.073H42.7842V19.7945C42.7842 22.3141 40.7417 24.3619 38.2339 24.3619H24.257C22.489 24.1565 21.0699 22.9072 20.721 21.2002V15.7922C20.721 14.0549 22.275 12.6398 24.1849 12.6398H48.7421C50.652 12.6398 52.206 14.0549 52.206 15.7922V29.8867C52.206 31.6661 50.5985 33.0391 48.7421 33.0391H46.8182L48.6234 38.4472L43.2658 33.0391H22.8356C21.9469 33.0391 21.2234 33.6065 21.2234 34.3094C21.2234 35.0123 21.9469 35.582 22.8356 35.582H42.6074L49.533 42.5709C51.8873 44.9457 52.9458 44.2896 51.885 41.1138L49.9983 35.4653C52.8481 34.9329 55 32.6351 55 29.8867V15.7922C55 12.6515 52.1921 10.0992 48.7397 10.0992V10.1016Z" fill="#302262"/>
<path id="Vector_2" d="M38.2315 0H7.58629C3.40348 0 0 3.41623 0 7.61471V24.3643C0 27.4886 1.88668 30.1786 4.57364 31.3508L1.89366 39.6637C0.865409 42.8511 1.93089 43.4956 4.25958 41.0975L13.1114 31.979C13.1114 31.979 17.0988 31.979 17.1081 31.979C17.9619 31.9183 18.6342 31.2621 18.6342 30.4588C18.6342 29.6556 17.9619 28.9924 17.1081 28.934C17.0686 28.9317 12.9253 28.934 12.9253 28.934L5.12964 36.9644L7.58629 28.934C5.12499 28.934 3.03591 26.9189 3.03591 24.3666V7.61471C3.03591 5.09516 5.07846 3.04729 7.58629 3.04729H38.2315C40.5416 3.04729 42.7819 4.81962 42.7819 7.84355H45.8155C45.8155 3.10566 42.1817 0.00233508 38.2292 0.00233508L38.2315 0Z" fill="#302262"/>
</g>
<defs>
<clipPath id="clip0_233_69">
<rect width="55" height="44" fill="white"/>
</clipPath>
</defs>
</svg>
