<svg width="36" height="36" viewBox="0 0 36 36" fill="none" xmlns="http://www.w3.org/2000/svg">
<g id="Idea Sharing Icon" clip-path="url(#clip0_233_89)">
<path id="Vector" d="M18.0048 36C8.07908 36 0 27.9231 0 18C0 8.07692 8.07908 0 18.0048 0C27.9305 0 36.0096 8.07692 36.0096 18C36.0096 27.9231 27.9305 36 18.0048 36ZM18.0048 2.88462C9.66604 2.88462 2.88539 9.66346 2.88539 18C2.88539 26.3365 9.66604 33.1154 18.0048 33.1154C26.3436 33.1154 33.1242 26.3365 33.1242 18C33.1242 9.66346 26.334 2.88462 18.0048 2.88462Z" fill="#2F1263"/>
<path id="Vector_2" d="M24.6029 11.3943L14.7445 14.7404L11.3975 24.6058L21.2559 21.2501L24.6029 11.3943Z" fill="#2F1263"/>
</g>
<defs>
<clipPath id="clip0_233_89">
<rect width="36" height="36" fill="white"/>
</clipPath>
</defs>
</svg>
