<svg width="74" height="81" viewBox="0 0 74 81" fill="none" xmlns="http://www.w3.org/2000/svg">
<g id="Main Logo" clip-path="url(#clip0_233_55)">
<path id="Vector" d="M65.9762 14.3368L45.0238 2.15726C40.0743 -0.719087 33.9257 -0.719087 28.9762 2.15726L8.02379 14.3368C3.0743 17.2067 0 22.5678 0 28.3205V52.6731C0 58.4258 3.0743 63.7869 8.02379 66.6632L28.9762 78.8427C31.4063 80.2552 34.1808 81 37 81C39.8192 81 42.5937 80.2552 45.0238 78.8427L65.9762 66.6632C70.9257 63.7869 74 58.4258 74 52.6731V28.3205C74 22.5678 70.9257 17.2067 65.9762 14.3304V14.3368ZM71.2064 52.6795C71.2064 57.4306 68.6678 61.8607 64.5794 64.2363L43.627 76.4158C39.6151 78.7464 34.3786 78.7464 30.373 76.4158L9.42062 64.2363C5.33218 61.8607 2.79366 57.4306 2.79366 52.6795V28.3205C2.79366 23.5694 5.33218 19.1393 9.42062 16.7637L30.373 4.5906C32.4204 3.40282 34.7102 2.80572 37 2.80572C39.2898 2.80572 41.5859 3.3964 43.627 4.58418L64.5794 16.7637C68.6678 19.1393 71.2064 23.5694 71.2064 28.3205V52.6731V52.6795Z" fill="#2F1263"/>
<path id="Vector_2" d="M67.9533 28.3205V52.6731C67.9533 56.2686 66.0462 59.5943 62.9528 61.392L51.236 68.1977C56.1026 64.095 59.2024 57.9379 59.2024 51.068C59.2024 38.7472 49.2396 28.7185 36.9998 28.7185C34.9461 28.7185 33.2813 30.3943 33.2813 32.4616C33.2813 34.529 34.9461 36.2047 36.9998 36.2047C45.1384 36.2047 51.759 42.8691 51.759 51.068C51.759 59.2669 45.1384 65.9249 36.9998 65.9249C28.8612 65.9249 22.2343 59.2605 22.2343 51.068C22.2343 49.0006 20.5696 47.3249 18.5158 47.3249C16.462 47.3249 14.7973 49.0006 14.7973 51.068C14.7973 57.9379 17.8971 64.095 22.7637 68.1977L11.0469 61.392C7.95347 59.5943 6.04639 56.2686 6.04639 52.6731V28.3205C6.04639 24.725 7.95347 21.3993 11.0469 19.6015L22.7637 12.7959C17.8971 16.8985 14.7973 23.0557 14.7973 29.9256C14.7973 42.2464 24.7601 52.2751 36.9998 52.2751C39.0536 52.2751 40.7183 50.5993 40.7183 48.5319C40.7183 46.4646 39.0536 44.7888 36.9998 44.7888C28.8612 44.7888 22.2343 38.1244 22.2343 29.932C22.2343 21.7395 28.8549 15.0751 36.9998 15.0751C45.1448 15.0751 51.759 21.7395 51.759 29.932C51.759 31.9994 53.4237 33.6751 55.4775 33.6751C57.5313 33.6751 59.196 31.9994 59.196 29.932C59.196 23.0621 56.0962 16.905 51.2296 12.8023L62.9464 19.608C66.0398 21.4057 67.9469 24.7315 67.9469 28.3269L67.9533 28.3205Z" fill="#2F1263"/>
</g>
<defs>
<clipPath id="clip0_233_55">
<rect width="74" height="81" fill="white"/>
</clipPath>
</defs>
</svg>
