<svg width="57" height="110" viewBox="0 0 57 110" fill="none" xmlns="http://www.w3.org/2000/svg">
<g id="Event Logo" clip-path="url(#clip0_233_119)">
<path id="Vector" d="M24.4566 41.5713C24.4975 41.5713 24.5466 41.5713 24.5876 41.5713C24.5876 41.5466 24.5712 41.5219 24.5712 41.4972L38.2155 33.7036C50.01 26.9645 54.1516 11.8716 47.4563 0L12.0319 20.2337L11.5817 20.5055C7.09633 24.114 6.15506 41.5713 24.4484 41.5713H24.4566Z" fill="#2F1263"/>
<g id="Group">
<path id="Vector_2" d="M44.7312 72.1112C42.0956 68.4616 37.0127 65.1332 32.3964 66.748L16.0593 76.2387C4.31387 83.0519 0.28687 98.1695 7.06401 110L45.4023 87.7313L46.1635 87.2535C48.3325 82.4834 47.8087 76.3705 44.7312 72.1112Z" fill="#2F1263"/>
<path id="Vector_3" d="M56.0262 59.976C53.0796 49.5131 44.199 42.4528 33.403 41.9749L24.6451 41.5877C24.6451 41.5877 24.6124 41.5877 24.596 41.5877V41.5712C24.5551 41.5712 24.506 41.5712 24.4651 41.5712C6.1635 41.5712 7.10478 24.1139 11.5983 20.5055C2.38206 26.2889 -1.9396 37.279 0.826917 47.8407C3.59343 58.4024 12.736 65.8171 23.5729 66.2949L32.3308 66.6821C32.3308 66.6821 32.3635 66.6821 32.3799 66.6821C32.3881 66.7068 32.3963 66.7233 32.3963 66.748C37.0208 65.1333 42.0954 68.4616 44.731 72.1112C47.8085 76.3788 48.3324 82.4835 46.1634 87.2535C55.1013 81.1406 58.9728 70.4388 56.018 59.976H56.0262Z" fill="#2F1263"/>
</g>
</g>
<defs>
<clipPath id="clip0_233_119">
<rect width="57" height="110" fill="white"/>
</clipPath>
</defs>
</svg>
