<svg width="45" height="45" viewBox="0 0 45 45" fill="none" xmlns="http://www.w3.org/2000/svg">
<g id="Post Icon" clip-path="url(#clip0_233_82)">
<path id="Vector" d="M35.0839 45H9.91608C4.4464 45 0 40.5524 0 35.0812V9.91877C0 4.4476 4.4464 0 9.91608 0H35.0839C40.5536 0 45 4.4476 45 9.91877V35.0934C45 40.5646 40.5536 45.0122 35.0839 45.0122V45ZM9.91608 3.0463C6.1275 3.0463 3.04548 6.12916 3.04548 9.91877V35.0934C3.04548 38.883 6.1275 41.9659 9.91608 41.9659H35.0839C38.8725 41.9659 41.9545 38.883 41.9545 35.0934V9.91877C41.9545 6.12916 38.8725 3.0463 35.0839 3.0463H9.91608Z" fill="#2F1263"/>
<path id="Vector_2" d="M35.3396 19.472H25.6428V9.77258H19.357V19.472H9.66016V25.7596H19.357V35.459H25.6428V25.7596H35.3396V19.472Z" fill="#2F1263"/>
</g>
<defs>
<clipPath id="clip0_233_82">
<rect width="45" height="45" fill="white"/>
</clipPath>
</defs>
</svg>
