<svg width="38" height="49" viewBox="0 0 38 49" fill="none" xmlns="http://www.w3.org/2000/svg">
<g id="Profile Icon" clip-path="url(#clip0_233_73)">
<path id="Vector" d="M17.3735 36.4248L15.7723 47.1758H13.8551L10.8769 31.1839C11.1701 31.1615 11.461 31.139 11.7591 31.139H12.7193C14.5959 32.1184 16.7309 32.6775 18.9999 32.6775C21.2689 32.6775 23.4046 32.1184 25.2796 31.139H26.2398C26.5396 31.139 26.8304 31.1615 27.1221 31.1839L24.1439 47.1758H22.2275L20.6263 36.4248H20.5702L22.1414 33.4733H15.8576L17.4287 36.4248H17.3727H17.3735Z" fill="white"/>
<path id="Vector_2" d="M10.877 31.1847L13.8552 47.1766H24.1432L27.1214 31.1847C33.2037 31.6474 38 36.826 38 43.1643V48.9992H0V43.1643C0 36.826 4.79631 31.6474 10.877 31.1847Z" fill="#2F1263"/>
<path id="Vector_3" d="M22.2275 47.1766H15.7732L17.3736 36.4248H17.4296L15.8585 33.4733H22.1422L20.5703 36.4248H20.6263L22.2275 47.1766Z" fill="#2F1263"/>
<path id="Vector_4" d="M35.4863 18.6228V19.6694C35.4863 21.4621 34.0045 22.9175 32.184 22.9175H31.9898C30.9963 26.4779 28.5307 29.4427 25.2796 31.1398C23.4046 32.1192 21.2688 32.6783 18.9998 32.6783C16.7309 32.6783 14.5959 32.1192 12.7193 31.1398C9.46816 29.4427 7.0042 26.4787 6.01066 22.9175H5.8165C3.99595 22.9175 2.51416 21.4613 2.51416 19.6694V18.6228C2.51416 17.071 3.62875 15.7768 5.11135 15.4569C5.05936 14.9901 5.02361 14.5191 5.02361 14.0364L5.03011 13.901C5.02767 13.5571 5.03905 13.2016 5.08373 12.8203C5.28682 10.6048 6.04072 8.55378 7.20486 6.81262C7.8044 5.91462 8.52092 5.10552 9.31868 4.39277C11.452 2.48547 14.2173 1.3067 17.2557 1.23194L17.4092 1.10733C17.54 0.961126 17.683 0.934544 17.7796 0.934544C18.0071 0.934544 18.1671 1.08906 18.2963 1.21532H18.3377C19.0713 0.463534 19.6229 0 20.0957 0H20.0982C20.5491 0.0357203 22.6637 0.802462 23.3388 1.32165C23.4891 1.43712 23.6572 1.58416 23.8343 1.7478C29.0263 3.31535 32.8168 8.22066 32.8168 14.0364C32.8168 14.1253 32.8103 14.2125 32.8087 14.3006C32.8152 14.6919 32.803 15.0773 32.7673 15.4578C34.3067 15.7311 35.4863 17.0311 35.4863 18.6228ZM5.4623 17.3493C4.88551 17.5038 4.45576 18.008 4.45576 18.6228V19.6694C4.45576 20.3423 4.96512 20.8939 5.62315 20.9886C5.5606 20.4736 5.51998 19.9535 5.51998 19.4227C5.51998 18.8919 5.56628 18.4068 5.62884 17.91C5.57116 17.7239 5.51267 17.5387 5.4623 17.3493ZM30.3959 17.7297C30.3561 17.4722 30.3017 17.2214 30.2432 16.9688C28.6615 15.82 26.6346 14.029 25.8588 12.6201C25.8588 12.6201 13.05 15.6895 8.38444 16.0409C8.25039 16.0509 8.12366 16.0567 8.00262 16.0575C7.83121 16.6017 7.6931 17.1557 7.60455 17.7297C7.51925 18.2838 7.46157 18.8462 7.46157 19.4227C7.46157 19.8348 7.48676 20.2393 7.53062 20.6397C7.60455 21.3259 7.74672 21.9888 7.94007 22.6317C9.35199 27.3277 13.7713 30.7685 18.9998 30.7685C24.2283 30.7685 28.6493 27.3294 30.0604 22.6326C30.2538 21.9896 30.3959 21.3259 30.4682 20.6405C30.5129 20.2393 30.5389 19.8339 30.5389 19.4227C30.5389 18.8462 30.4812 18.2838 30.3959 17.7297ZM33.5447 18.6228C33.5447 17.9615 33.05 17.4232 32.4074 17.3185C32.4033 17.5736 32.3944 17.8244 32.3895 18.0795C32.4431 18.5214 32.4813 18.9667 32.4813 19.4236C32.4813 19.9544 32.4423 20.4744 32.379 20.9894C33.0362 20.8956 33.5455 20.344 33.5455 19.6703L33.5447 18.6228Z" fill="#2F1263"/>
</g>
<defs>
<clipPath id="clip0_233_73">
<rect width="38" height="49" fill="white" transform="matrix(-1 0 0 1 38 0)"/>
</clipPath>
</defs>
</svg>
