<svg width="25" height="26" viewBox="0 0 25 26" fill="none" xmlns="http://www.w3.org/2000/svg">
<g id="Search Icon" clip-path="url(#clip0_233_86)">
<path id="Vector" d="M10.7914 21.6655C4.84228 21.6655 0 16.81 0 10.8362C0 4.86241 4.84228 0 10.7914 0C16.7405 0 21.5758 4.86241 21.5758 10.8362C21.5758 16.81 16.7335 21.6725 10.7914 21.6725V21.6655ZM10.7914 2.08389C5.98368 2.08389 2.07526 6.00855 2.07526 10.8362C2.07526 15.6639 5.98368 19.5886 10.7914 19.5886C15.5991 19.5886 19.5006 15.6639 19.5006 10.8362C19.5006 6.00855 15.5921 2.08389 10.7914 2.08389Z" fill="#2F1263"/>
<path id="Vector_2" d="M23.9622 26C23.6924 26 23.4226 25.8958 23.222 25.6874L16.5535 18.8453C16.1523 18.4355 16.1592 17.7756 16.5673 17.3727C16.9754 16.9698 17.6326 16.9768 18.0338 17.3866L24.7023 24.2287C25.1036 24.6385 25.0966 25.2984 24.6885 25.7013C24.4879 25.9028 24.225 26 23.9622 26Z" fill="#2F1263"/>
</g>
<defs>
<clipPath id="clip0_233_86">
<rect width="25" height="26" fill="white"/>
</clipPath>
</defs>
</svg>
