<svg width="49" height="48" viewBox="0 0 49 48" fill="none" xmlns="http://www.w3.org/2000/svg">
<g id="Settings Icon" clip-path="url(#clip0_233_58)">
<path id="Vector" d="M48.9867 23.2182C48.9598 22.282 48.8699 21.3563 48.7327 20.451L43.8834 19.652L42.2394 15.0904L45.471 11.4074C44.491 9.78586 43.3248 8.29348 42.0067 6.9513L37.6097 9.14604L33.5787 6.42109L34.0148 1.54606C32.343 0.845339 30.575 0.318375 28.7399 0.00170898L26.4557 4.34003L21.5802 4.4537L19.0755 0.23393C17.2012 0.658587 15.4103 1.29029 13.7296 2.112L14.4482 6.95374L10.5732 9.90035L6.05781 7.96219C4.81811 9.37257 3.73766 10.9267 2.84913 12.6026L6.28484 16.0948L4.90059 20.7401L0.102677 21.8159C0.0161104 22.7773 -0.0206396 23.7597 0.0103937 24.7576C0.0446937 25.6687 0.12636 26.5618 0.250494 27.4428L5.10231 28.2556L6.73074 32.8229L3.47796 36.497C4.46123 38.1193 5.62253 39.6279 6.94063 40.9742L11.3465 38.7932L15.3694 41.5304L14.9137 46.407C16.6394 47.1329 18.4589 47.6794 20.3503 48.0009L22.6214 43.652L27.4961 43.5181L30.0082 47.7305C31.8808 47.2977 33.6693 46.6563 35.3492 45.8313L34.6166 40.992L38.4778 38.0284L42.9973 39.9543C44.237 38.5342 45.315 36.9777 46.1962 35.3034L42.74 31.825L44.1071 27.1659L48.9091 26.0836C48.9867 25.1393 49.0186 24.1828 48.9851 23.2198L48.9867 23.2182ZM31.7436 32.1887C27.1948 36.1617 20.2572 35.7386 16.2425 31.1925C12.2506 26.6511 12.6932 19.7625 17.2568 15.7928C21.8007 11.8003 28.7424 12.2437 32.7424 16.7728C36.7637 21.3109 36.3022 28.2142 31.7436 32.1895V32.1887Z" fill="#2F1263"/>
<path id="Vector_2" d="M36.5725 13.4453C30.717 6.81644 20.5496 6.15632 13.8807 11.9773C7.2191 17.8047 6.55842 27.8966 12.4286 34.536C18.2825 41.1625 28.4434 41.8145 35.1058 35.9943C41.7755 30.1734 42.4289 20.0709 36.5725 13.4461V13.4453ZM34.0662 34.817C28.0564 40.0671 18.8917 39.4793 13.6112 33.5016C8.31588 27.5134 8.91123 18.4105 14.9203 13.1538C20.9358 7.90285 30.107 8.49883 35.3884 14.4781C40.6706 20.4534 40.081 29.566 34.0654 34.817H34.0662Z" fill="white"/>
</g>
<defs>
<clipPath id="clip0_233_58">
<rect width="49" height="48" fill="white"/>
</clipPath>
</defs>
</svg>
