<svg width="52" height="46" viewBox="0 0 52 46" fill="none" xmlns="http://www.w3.org/2000/svg">
<path id="Updates Icon" d="M51.803 24.3176L43.8633 13.7943C43.4791 13.2848 42.7147 13.2789 42.3225 13.7818L34.1158 24.3051C33.6203 24.9408 34.0741 25.8672 34.8816 25.8672H40.1849C38.8104 34.0619 31.6549 40.3283 23.0561 40.3283C13.4775 40.3283 5.68487 32.5546 5.68487 22.9993C5.68487 13.4441 13.4775 5.67103 23.0561 5.67103C28.2925 5.67103 33.199 7.99443 36.5171 12.0458C37.5107 13.2591 39.3019 13.4375 40.5168 12.4476C41.7323 11.457 41.9125 9.67023 40.9195 8.45765C36.5177 3.08266 30.0068 0 23.0561 0C10.343 0 0 10.3178 0 23C0 35.6822 10.343 46 23.0561 46C34.7955 46 44.5065 37.2007 45.9267 25.8679H51.028C51.8282 25.8679 52.2846 24.956 51.803 24.3176Z" fill="#2F1263"/>
</svg>
